<?xml version="1.0" encoding="UTF-8" standalone="no"?>
<!DOCTYPE svg PUBLIC "-//W3C//DTD SVG 1.1//EN" "http://www.w3.org/Graphics/SVG/1.1/DTD/svg11.dtd">
<svg width="100%" height="100%" viewBox="0 0 1080 1080" version="1.1" xmlns="http://www.w3.org/2000/svg" xmlns:xlink="http://www.w3.org/1999/xlink" xml:space="preserve" xmlns:serif="http://www.serif.com/" style="fill-rule:evenodd;clip-rule:evenodd;stroke-linejoin:round;stroke-miterlimit:2;">
    <g transform="matrix(1,0,0,1,-3408.812825,0)">
        <g id="MIN_Color" transform="matrix(1,0,0,1,3408.812825,0)">
            <rect x="0" y="0" width="1080" height="1080" style="fill:none;"/>
            <g id="BG" transform="matrix(1,0,0,1,0,-0.484826)">
                <rect x="0" y="0.485" width="1080" height="1080" style="fill:rgb(22,85,109);"/>
            </g>
            <g id="Logo" transform="matrix(1.241564,0,0,1.241564,-129.77376,-83.901795)">
                <g transform="matrix(1,0,0,1,29,-4.987344)">
                    <path d="M221,626L221,635L146,621L146,377L155,377L273,502L397.051,377.949L407,377.949L407,616L342,621L342,610C370.386,609.396 386.934,592.034 391,557L391,440L288,543L178,429L178,563C177.996,591.905 188.118,615.228 221,626Z" style="fill:rgb(246,240,148);"/>
                </g>
                <g transform="matrix(1.001434,0,0,0.997122,29.997955,-2.452829)">
                    <path d="M570,343C565.493,353.715 567.524,362.443 580,368C589.569,372.158 598.929,370.866 608,362C611.349,356.716 612.296,350.862 609,344C604.996,338.87 603.081,335.964 591.804,333C583.713,332.307 574.891,332.693 567,334.964C551.999,338.791 541.711,347.139 533,357C525.632,366.667 519.715,378.016 517.196,387.682C509.741,421.073 516.668,390.522 503.129,487.227C502.533,491.488 501.896,495.997 501.217,500.769C484.247,620.021 491.177,579.321 483.804,620.317C478.715,648.615 467.349,660.239 449,670C453.238,659.802 449.682,644.742 437,643C426.283,641.528 418.251,644.629 410,652C394.128,666.179 423.29,681.899 440,680C452.767,679.279 463.562,674.526 473,667C478.161,662.342 495.447,650.445 500.66,620.317C500.66,620.317 500.869,622.087 517.826,500.769C530.039,413.392 526.549,412.477 532.744,387.682C536.143,374.082 541.318,363.58 555.804,352L570,343Z" style="fill:rgb(246,240,148);"/>
                </g>
                <g transform="matrix(1,0,0,1,31.919129,-5.987344)">
                    <path d="M610,378L610,390L625,390C641.073,389.672 646.459,399.939 646,416L646,600C644.757,617.23 637.291,626.81 623,628L610,628L610,636L720,636L720,629L712,629C695.331,626.93 684.144,619.431 684,601L684,397L798,397L798,602C796.292,618.788 788.1,627.207 774,628L763,628L763,636L872,636L872,628L865,628C847.317,625.524 836.651,618.338 836,602L836,416C835.737,400.449 841.563,390.947 856,390L872,390L872,378L610,378Z" style="fill:rgb(246,240,148);"/>
                </g>
            </g>
        </g>
    </g>
</svg>
